<?xml version="1.0" encoding="UTF-8" standalone="no"?>
<!DOCTYPE svg PUBLIC "-//W3C//DTD SVG 1.1//EN" "http://www.w3.org/Graphics/SVG/1.1/DTD/svg11.dtd">
<svg width="100%" height="100%" viewBox="0 0 1600 720" version="1.1" xmlns="http://www.w3.org/2000/svg" xmlns:xlink="http://www.w3.org/1999/xlink" xml:space="preserve" xmlns:serif="http://www.serif.com/" style="fill-rule:evenodd;clip-rule:evenodd;stroke-linejoin:round;stroke-miterlimit:2;">
    <g transform="matrix(1,0,0,1,-114.042,-225.121)">
        <g transform="matrix(-0.999945,-0.0104921,0.0104921,-0.999945,1797.45,1085.62)">
            <path d="M114.96,16L1618.04,0C1618.04,0 1844.92,290.271 1658.04,442.271C1471.16,594.271 1375.36,432.059 1117.01,520.059C858.671,608.059 874.329,741.846 615.987,701.846C357.645,661.846 373.323,827.633 114.96,827.633C-143.403,827.633 114.96,16 114.96,16Z" style="fill:rgb(30,63,160);fill-opacity:0.04;"/>
        </g>
        <g transform="matrix(-0.999945,-0.0104921,0.0104921,-0.999945,2449.35,1867.65)">
            <g opacity="0.7">
                <g transform="matrix(1,0,0,1,0,-1)">
                    <path d="M1922.71,0L1522.44,975.267C1467.01,1110.32 1335.22,1198.54 1188.9,1198.54L0,1198.69L400.277,223.438C455.711,88.371 587.498,0.149 733.803,0.149L1922.71,0Z" style="fill:rgb(30,63,160);fill-opacity:0;"/>
                </g>
                <g transform="matrix(1.12859,3.46945e-18,1.73472e-18,1,-330.016,2.27374e-13)">
                    <path d="M2566.38,880.016L2477.71,1429.06C2446.5,1505.1 2440.51,1682.24 2358.13,1682.24L577.975,1632.66L856.344,1005.71C887.552,929.667 961.745,880 1044.11,880L2566.38,880.016Z" style="fill:rgb(30,63,160);fill-opacity:0;"/>
                </g>
                <g transform="matrix(1,-4.16334e-17,-4.51028e-17,2.07492,0,-1778.63)">
                    <path d="M2512.23,1249.34L2376.87,1579.16C2358.12,1624.83 2313.55,1654.66 2264.07,1654.66L314.12,1654.66L449.486,1324.85C468.233,1279.17 512.801,1249.34 562.278,1249.34L2512.23,1249.34Z" style="fill:rgb(30,63,160);fill-opacity:0;"/>
                </g>
            </g>
        </g>
        <g transform="matrix(-0.999945,-0.0104921,0.0104921,-0.999945,1797.45,1085.62)">
            <path d="M114.96,16L1618.04,0C1618.04,0 1948,228 1658,352C1368,476 1349,596 1165.5,635.5C982,675 826.342,515.5 616,659.5C405.658,803.5 373.323,787.633 114.96,763.633C-143.403,739.633 114.96,16 114.96,16Z" style="fill:rgb(30,63,160);fill-opacity:0.1;"/>
        </g>
    </g>
</svg>
